<svg xmlns="http://www.w3.org/2000/svg" xmlns:xlink="http://www.w3.org/1999/xlink" xmlns:inkscape="http://www.inkscape.org/namespaces/inkscape" version="1.1" width="85" height="64" viewBox="0 0 85 64">
<defs>
<path id="font_1_2" d="M.7599945 .69506838C.7599945 .69807437 .7579956 .7050781 .7489929 .7050781 .74598696 .7050781 .7449951 .70407107 .73399356 .69306948L.6639862 .61598208C.6549988 .6300049 .60899356 .7050781 .49798585 .7050781 .2749939 .7050781 .049987794 .4837799 .049987794 .25144959 .049987794 .09249878 .16099549-.022460938 .32299806-.022460938 .36698915-.022460938 .4119873-.013473511 .44799806 .0015258789 .49798585 .021530152 .5169983 .042526246 .5349884 .06251526 .5439911 .037521364 .56999209 .0005340576 .5799866 .0005340576 .58499148 .0005340576 .58699038 .0035247803 .58699038 .0045318605 .58898928 .0065307619 .598999 .044525148 .60398867 .06550598L.6230011 .14248657C.6269989 .15948487 .6319885 .1764679 .6359863 .19346619 .6469879 .2384491 .647995 .240448 .7049866 .24145508 .70999148 .24145508 .72099307 .2424469 .72099307 .26145936 .72099307 .26844789 .71598818 .27246095 .70799258 .27246095 .68499758 .27246095 .6259918 .26945497 .6029968 .26945497 .57199099 .26945497 .49398805 .27246095 .46299745 .27246095 .45399476 .27246095 .44198609 .27246095 .44198609 .25245667 .44198609 .24145508 .44999696 .24145508 .47200013 .24145508 .47299195 .24145508 .5019989 .24145508 .5249939 .23945618 .5509949 .2364502 .55599978 .23345948 .55599978 .22045899 .55599978 .2114563 .54499819 .16647339 .5349884 .12948609 .5069885 .01953125 .3769989 .008529663 .34199525 .008529663 .24598694 .008529663 .14099121 .06550598 .14099121 .21846009 .14099121 .24945069 .15098572 .41467286 .2559967 .5448761 .30999757 .6129761 .40699769 .67407229 .5059967 .67407229 .60798647 .67407229 .6669922 .59695437 .6669922 .48077394 .6669922 .44070436 .6639862 .43971253 .6639862 .4296875 .6639862 .41967774 .6749878 .41967774 .67900088 .41967774 .69200137 .41967774 .69200137 .42167665 .69699099 .43971253L.7599945 .69506838Z"/>
<path id="font_1_3" d="M.375 .6136017C.3809967 .63760378 .38398744 .6476135 .40299989 .65060427 .4119873 .6516113 .44400025 .6516113 .46398927 .6516113 .5349884 .6516113 .6459961 .6516113 .6459961 .5525818 .6459961 .51856997 .6299896 .44955445 .59098818 .41055299 .5649872 .38453675 .5119934 .35253907 .42199708 .35253907H.30999757L.375 .6136017M.5189972 .33953858C.6199951 .3615265 .7389984 .43154908 .7389984 .5325775 .7389984 .61860659 .6489868 .6826172 .5179901 .6826172H.23298645C.21299744 .6826172 .20399475 .6826172 .20399475 .6626129 .20399475 .6516113 .21299744 .6516113 .23199463 .6516113 .23399353 .6516113 .25299073 .6516113 .269989 .6496124 .28799439 .6476135 .29699708 .64660647 .29699708 .63360598 .29699708 .62960818 .29599 .6266022 .29299928 .6145935L.15899658 .07752991C.14898682 .038528444 .14698792 .030532837 .067993167 .030532837 .049987794 .030532837 .040985109 .030532837 .040985109 .010528564 .040985109-.00047302247 .052993776-.00047302247 .054992677-.00047302247 .08299255-.00047302247 .15299988 .002532959 .18099976 .002532959 .20899964 .002532959 .27999879-.00047302247 .30799867-.00047302247 .31599427-.00047302247 .32798768-.00047302247 .32798768 .01953125 .32798768 .030532837 .31900025 .030532837 .2999878 .030532837 .2630005 .030532837 .23498535 .030532837 .23498535 .048538209 .23498535 .054534913 .23699951 .059524537 .23799134 .0655365L.3039856 .3305359H.4229889C.5139923 .3305359 .5319977 .27453614 .5319977 .23953247 .5319977 .22453308 .5239868 .19352722 .5179901 .17053223 .5109863 .14253235 .5019989 .105529788 .5019989 .08552551 .5019989-.022460938 .621994-.022460938 .6349945-.022460938 .7200012-.022460938 .7549896 .07853699 .7549896 .0925293 .7549896 .104537967 .74398806 .104537967 .7429962 .104537967 .73399356 .104537967 .7319946 .09753418 .7299957 .090530399 .7049866 .016525269 .6619873-.00047302247 .6389923-.00047302247 .60598757-.00047302247 .598999 .021530152 .598999 .060531618 .598999 .091537479 .6049957 .14253235 .60899356 .17453003 .61099246 .1885376 .61299136 .20753479 .61299136 .2215271 .61299136 .2985382 .54599 .3295288 .5189972 .33953858Z"/>
<path id="font_1_1" d="M.1789856 .114868167C.13899231 .047973634 .099990848 .033981325 .055999757 .0309906 .04399109 .02999878 .034988405 .02999878 .034988405 .010986328 .034988405 .004989624 .039993287 0 .04798889 0 .07499695 0 .10598755 .0029907227 .13398743 .0029907227 .16699219 .0029907227 .20199585 0 .23399353 0 .23999024 0 .25299073 0 .25299073 .018997193 .25299073 .02999878 .24398804 .0309906 .23699951 .0309906 .21398926 .032989503 .18998719 .04096985 .18998719 .06593323 .18998719 .077926639 .19599915 .088897708 .20399475 .102890018L.27999879 .23068238H.5309906C.5329895 .2097168 .5469971 .07392883 .5469971 .063949588 .5469971 .033981325 .49499513 .0309906 .47499085 .0309906 .46099855 .0309906 .45098878 .0309906 .45098878 .010986328 .45098878 0 .46299745 0 .46499635 0 .5059967 0 .548996 .0029907227 .58999636 .0029907227 .61499026 .0029907227 .6779938 0 .7029877 0 .70899966 0 .72099307 0 .72099307 .019989014 .72099307 .0309906 .71099856 .0309906 .69799807 .0309906 .6359863 .0309906 .6359863 .037979127 .6329956 .06694031L.57199099 .691803C.56999209 .71180728 .56999209 .7158203 .5529938 .7158203 .5369873 .7158203 .5329895 .7088165 .5269928 .69880679L.1789856 .114868167M.29899598 .26168824 .49598695 .5917816 .5279999 .26168824H.29899598Z"/>
<path id="font_2_3" d="M.5319977 .36935426C.5359955 .3843689 .5359955 .38937379 .5359955 .39038087 .5359955 .4123993 .5179901 .4223938 .5019989 .4223938 .47898866 .4223938 .45999146 .4033966 .45599366 .3843689 .43899537 .4113922 .40499879 .44140626 .35299684 .44140626 .22799683 .44140626 .09700012 .3072815 .09700012 .1641388 .09700012 .061019899 .16699219 0 .24899292 0 .29499818 0 .33898927 .022994996 .37399293 .054016115L.35198976-.036026C.34098817-.07803345 .33399964-.105041507 .29599-.13903809 .2519989-.17610169 .20899964-.17610169 .18399048-.17610169 .13798523-.17610169 .125-.17308045 .10699463-.16903687 .13198853-.15704346 .13899231-.13304138 .13899231-.11903381 .13899231-.09503174 .11999512-.08203125 .099990848-.08203125 .07199097-.08203125 .042999269-.105041507 .042999269-.14303589 .042999269-.20310974 .1289978-.20410156 .18499756-.20410156 .34199525-.20410156 .40899659-.1240387 .4229889-.06703186L.5319977 .36935426M.3939972 .13310242C.3899994 .11808777 .3899994 .11608887 .37298585 .096069339 .33799745 .054016115 .2899933 .027999878 .2519989 .027999878 .20098877 .027999878 .1769867 .07104492 .1769867 .12309265 .1769867 .16714478 .20399475 .2792511 .22999573 .32330323 .27198792 .39338685 .31900025 .4133911 .35299684 .4133911 .4229889 .4133911 .44198609 .33831788 .44198609 .3283081 .44198609 .3263092 .44198609 .3243103 .43899537 .31329347L.3939972 .13310242Z"/>
<path id="font_3_2" d="M.12599182 .2263794C.15699768 .2263794 .15699768 .24838257 .15699768 .25038148 .15699768 .26138307 .15098572 .27539063 .12599182 .27539063V.4029541C.12599182 .41690064 .12599182 .44189454 .101989749 .44189454 .07699585 .44189454 .07699585 .4179077 .07699585 .4029541V.098083499C.07699585 .08305359 .07699585 .059051515 .101989749 .059051515 .12599182 .059051515 .12599182 .08406067 .12599182 .098083499V.2263794Z"/>
<path id="font_3_1" d="M.91999819 .2263794C.7939911 .13398743 .7769928 .0028076173 .7769928 .0018157959 .7769928-.013183594 .7869873-.013183594 .8009949-.013183594 .81900027-.013183594 .82199099-.013183594 .82699587 .0038146973 .83299258 .028808594 .848999 .092819217 .901001 .14805603 .95899966 .20930481 1.0089874 .2243805 1.0509949 .23738098 1.0569916 .23937989 1.0609894 .24537659 1.0609894 .25038148 1.0609894 .26037599 1.0549927 .26239015 1.0419922 .26638795 .897995 .3123169 .8470001 .41412355 .82598879 .502121 .82199099 .51412966 .8149872 .51412966 .8009949 .51412966 .7869873 .51412966 .7769928 .51412966 .7769928 .49913026 .7769928 .49713136 .7869873 .43013 .83599856 .3612213 .85899356 .32728578 .8869934 .29933167 .91999819 .27539063H.116989139C.100997928 .27539063 .07699585 .27539063 .07699585 .25138856 .07699585 .2263794 .099990848 .2263794 .116989139 .2263794H.91999819Z"/>
<path id="font_2_2" d="M.647995 .39437867C.6589966 .4053955 .6619873 .4084015 .6619873 .41540528 .6619873 .4243927 .6549988 .43139649 .6459961 .43139649 .6380005 .43139649 .6359863 .42840577 .625 .41740418L.3829956 .16918946C.33999635 .28729249 .33099366 .3123169 .29899598 .37236024 .2749939 .41740418 .23298645 .44140626 .16299439 .44140626 .09199524 .44140626 .06498718 .38638307 .06498718 .37236024 .06498718 .35935975 .07798767 .35935975 .08198547 .35935975 .09498596 .35935975 .09700012 .36436463 .09899902 .3713684 .11099243 .4033966 .13999939 .4133911 .15499878 .4133911 .18699646 .4133911 .22799683 .32832337 .24198914 .29829408 .2669983 .24525452 .27198792 .23223877 .31799317 .103134158L.05999756-.1611023C.052993776-.17010498 .049987794-.17210388 .049987794-.17811585 .049987794-.18611145 .057998659-.19410706 .06599426-.19410706 .07299805-.19410706 .07598877-.19111634 .084991458-.18310547 .10598755-.1631012 .1559906-.109054569 .1769867-.088027957L.26098634-.001953125C.2769928 .013061523 .31599427 .052093507 .32998658 .068099979 .34700013 .019058228 .37998963-.07702637 .41799928-.14308167 .45098878-.20210266 .526001-.20410156 .5499878-.20410156 .61698916-.20410156 .6469879-.15208435 .6469879-.1350708 .6469879-.12205505 .6349945-.12205505 .6299896-.12205505 .6179962-.12205505 .6159973-.12705994 .61299136-.13407898 .6029968-.16209412 .57598879-.17610169 .55799868-.17610169 .5029907-.17610169 .41799928 .05909729 .394989 .13415528L.647995 .39437867Z"/>
<path id="font_4_1" d="M.6299896 .3643341C.6349945 .38233949 .6349945 .38435365 .6349945 .38734437 .6349945 .40437318 .621994 .42237855 .59799197 .42237855 .5779877 .42237855 .55599978 .40837098 .5479889 .38334657 .5149994 .42736817 .47200013 .4423828 .42799378 .4423828 .29100038 .4423828 .1499939 .31227113 .1499939 .17112732 .1499939 .06602478 .22999573 0 .32499696 0 .3889923 0 .44299317 .034988405 .46598817 .054016115 .46398927 .044006349 .44599916-.024032593 .44198609-.041046144 .43299867-.07707214 .42599488-.10707092 .37998963-.1390686 .33299256-.17108155 .2889862-.17108155 .2599945-.17108155 .2519989-.17108155 .1789856-.17007447 .1789856-.1640625L.18299866-.16107178C.20098877-.14506531 .20599365-.12307739 .20599365-.11306763 .20599365-.096069339 .19400025-.07206726 .16099549-.07206726 .1289978-.07206726 .09899902-.10006714 .09899902-.13807678 .09899902-.20507813 .20098877-.20507813 .26098634-.20507813 .397995-.20507813 .5-.15907288 .5239868-.062057496L.6299896 .3643341M.48799134 .1421051C.48399354 .12608338 .48298646 .12208557 .46398927 .10206604 .4269867 .0650177 .3809967 .033996583 .32899476 .033996583 .2899933 .033996583 .23999024 .055007936 .23999024 .13409424 .23999024 .17314148 .2579956 .26823426 .29599 .32629396 .32299806 .3703308 .375 .40837098 .42799378 .40837098 .5109863 .40837098 .5319977 .33029176 .5319977 .32128907 .5319977 .31929017 .5309906 .31227113 .5289917 .3062744L.48799134 .1421051Z"/>
<path id="font_2_1" d="M.49198915 .68133547C.49198915 .69433596 .47999574 .69433596 .47499085 .69433596 .45999146 .69433596 .45899964 .68933108 .45498658 .67233279L.397995 .44335938C.22099304 .4353485 .069992069 .30833436 .069992069 .17430115 .069992069 .061279298 .17298889-.006729126 .28399659-.010726929 .27598573-.041793825 .2689972-.0738678 .26098634-.10493469 .24899292-.15203858 .23999024-.18910218 .23999024-.19210816 .23999024-.20410156 .25299073-.20410156 .2559967-.20410156 .2709961-.20410156 .27198792-.20111084 .2769928-.18009949L.31900025-.01171875C.48999024-.0047302248 .6469879 .121292117 .6469879 .25732423 .6469879 .3623352 .5549927 .4373474 .43299867 .4423523L.49198915 .68133547M.29100038 .01727295C.21398926 .021270752 .14299011 .0632782 .14299011 .15730286 .14299011 .25732423 .21899414 .39834596 .3899994 .41435243L.29100038 .01727295M.4249878 .41435243C.5019989 .41134645 .57398989 .369339 .57398989 .2743225 .57398989 .16529846 .48799134 .031280519 .32598878 .01727295L.4249878 .41435243Z"/>
</defs>
<use data-text="G" xlink:href="#font_1_2" transform="matrix(9.962899,0,0,-9.963496,4.2636415,12.55278)"/>
<use data-text="R" xlink:href="#font_1_3" transform="matrix(9.962899,0,0,-9.963496,68.50757,12.55278)"/>
<use data-text="G" xlink:href="#font_1_2" transform="matrix(9.962899,0,0,-9.963496,76.139148,12.55278)"/>
<use data-text="A" xlink:href="#font_1_1" transform="matrix(9.962899,0,0,-9.963496,4.444641,62.530279)"/>
<path transform="matrix(1.00003,0,0,-1.00009,44.12384,34.136724)" stroke-width=".39848" stroke-linecap="butt" stroke-miterlimit="10" stroke-linejoin="miter" fill="none" stroke="#000000" d="M-27.53212 24.07358H19.49207"/>
<path transform="matrix(1.00003,0,0,-1.00009,63.81573,10.060976)" stroke-width=".39848" stroke-linecap="round" stroke-linejoin="round" fill="none" stroke="#000000" d="M-2.07213 2.39091C-1.69356 .95633-.84995 .27893 0 0-.84995-.27893-1.69356-.95633-2.07213-2.39091"/>
<use data-text="g" xlink:href="#font_2_3" transform="matrix(6.9740097,0,0,-6.9744279,29.690407,5.7491686)"/>
<use data-text="&#xfffd;" xlink:href="#font_3_2" transform="matrix(6.9740097,0,0,-6.9744279,33.827524,5.7491686)"/>
<use data-text="&#x2192;" xlink:href="#font_3_1" transform="matrix(6.9740097,0,0,-6.9744279,33.827524,5.7491686)"/>
<use data-text="&#x03c7;" xlink:href="#font_2_2" transform="matrix(6.9740097,0,0,-6.9744279,41.769769,5.7491686)"/>
<use data-text="g" xlink:href="#font_4_1" transform="matrix(4.9814498,0,0,-4.981748,46.747919,6.7452585)"/>
<path transform="matrix(1.00003,0,0,-1.00009,44.12384,34.136724)" stroke-width=".39848" stroke-linecap="butt" stroke-miterlimit="10" stroke-linejoin="miter" fill="none" stroke="#000000" d="M-35.94193 17.73375V-17.33528"/>
<path transform="matrix(0,1.00009,1.00003,0,8.180832,51.67282)" stroke-width=".39848" stroke-linecap="round" stroke-linejoin="round" fill="none" stroke="#000000" d="M-2.07213 2.39091C-1.69356 .95633-.84995 .27893 0 0-.84995-.27893-1.69356-.95633-2.07213-2.39091"/>
<use data-text="&#x03d5;" xlink:href="#font_2_1" transform="matrix(6.9740097,0,0,-6.9744279,1.0435486,35.87988)"/>
<path transform="matrix(1.00003,0,0,-1.00009,44.12384,34.136724)" stroke-width=".39848" stroke-linecap="butt" stroke-dasharray="2.78941,1.59395" stroke-miterlimit="10" stroke-linejoin="miter" fill="none" stroke="#000000" d="M23.48776 17.73375-27.39151-19.62404"/>
<path transform="matrix(-.8060542,.5918633,.59182778,.8061025,16.570914,53.88044)" stroke-width=".39848" stroke-linecap="round" stroke-linejoin="round" fill="none" stroke="#000000" d="M-2.07213 2.39091C-1.69356 .95633-.84995 .27893 0 0-.84995-.27893-1.69356-.95633-2.07213-2.39091"/>
</svg>
