<svg xmlns="http://www.w3.org/2000/svg" xmlns:xlink="http://www.w3.org/1999/xlink" xmlns:inkscape="http://www.inkscape.org/namespaces/inkscape" version="1.1" width="91" height="43" viewBox="0 0 91 43">
<defs>
<path id="font_1_1" d="M.1789856 .114868167C.13899231 .047973634 .099990848 .033981325 .055999757 .0309906 .04399109 .02999878 .034988405 .02999878 .034988405 .010986328 .034988405 .004989624 .039993287 0 .04798889 0 .07499695 0 .10598755 .0029907227 .13398743 .0029907227 .16699219 .0029907227 .20199585 0 .23399353 0 .23999024 0 .25299073 0 .25299073 .018997193 .25299073 .02999878 .24398804 .0309906 .23699951 .0309906 .21398926 .032989503 .18998719 .04096985 .18998719 .06593323 .18998719 .077926639 .19599915 .088897708 .20399475 .102890018L.27999879 .23068238H.5309906C.5329895 .2097168 .5469971 .07392883 .5469971 .063949588 .5469971 .033981325 .49499513 .0309906 .47499085 .0309906 .46099855 .0309906 .45098878 .0309906 .45098878 .010986328 .45098878 0 .46299745 0 .46499635 0 .5059967 0 .548996 .0029907227 .58999636 .0029907227 .61499026 .0029907227 .6779938 0 .7029877 0 .70899966 0 .72099307 0 .72099307 .019989014 .72099307 .0309906 .71099856 .0309906 .69799807 .0309906 .6359863 .0309906 .6359863 .037979127 .6329956 .06694031L.57199099 .691803C.56999209 .71180728 .56999209 .7158203 .5529938 .7158203 .5369873 .7158203 .5329895 .7088165 .5269928 .69880679L.1789856 .114868167M.29899598 .26168824 .49598695 .5917816 .5279999 .26168824H.29899598Z"/>
<path id="font_1_2" d="M.1599884 .07795715C.1499939 .038986207 .147995 .0309906 .068984989 .0309906 .051986696 .0309906 .041992189 .0309906 .041992189 .010986328 .041992189 0 .050994874 0 .068984989 0H.42599488C.58399966 0 .70199587 .11791992 .70199587 .21585083 .70199587 .28778077 .6439972 .3457489 .5469971 .35673524 .651001 .37573243 .7559967 .44970704 .7559967 .5446625 .7559967 .6186218 .6899872 .6826172 .56999209 .6826172H.23399353C.21499634 .6826172 .20498657 .6826172 .20498657 .6626129 .20498657 .6516113 .21398926 .6516113 .23298645 .6516113 .23498535 .6516113 .2539978 .6516113 .2709961 .6496124 .2889862 .6476135 .2979889 .64660647 .2979889 .6336212 .2979889 .6296234 .29699708 .62661746 .2939911 .614624L.1599884 .07795715M.31098939 .36573792 .37298585 .6136322C.38198854 .64860537 .38398744 .6516113 .4269867 .6516113H.55599978C.6439972 .6516113 .6649933 .5926361 .6649933 .5486603 .6649933 .46069337 .57899478 .36573792 .45700074 .36573792H.31098939M.2659912 .0309906C.2519989 .0309906 .25 .0309906 .24398804 .03199768 .23399353 .032989503 .23098755 .033996583 .23098755 .04197693 .23098755 .04498291 .23098755 .04698181 .23599243 .064971927L.30499269 .34375H.49398805C.58999636 .34375 .60899356 .2698059 .60899356 .22683716 .60899356 .12791443 .519989 .0309906 .4019928 .0309906H.2659912Z"/>
<path id="font_1_3" d="M.7599945 .69506838C.7599945 .69807437 .7579956 .7050781 .7489929 .7050781 .74598696 .7050781 .7449951 .70407107 .73399356 .69306948L.6639862 .61602786C.6549988 .6300354 .60899356 .7050781 .49798585 .7050781 .2749939 .7050781 .049987794 .48391725 .049987794 .25172425 .049987794 .08659363 .16799927-.022460938 .32099916-.022460938 .4079895-.022460938 .48399354 .017532349 .5369873 .063583377 .6299896 .14564514 .6469879 .2367096 .6469879 .23971558 .6469879 .24972534 .6369934 .24972534 .6349945 .24972534 .6289978 .24972534 .6239929 .24772644 .621994 .23971558 .61299136 .21069336 .58999636 .13963318 .5209961 .081588748 .45199586 .025543213 .3889923 .008529663 .33699037 .008529663 .24699402 .008529663 .14099121 .060577394 .14099121 .21670532 .14099121 .27374269 .1619873 .43588258 .2619934 .55296328 .32299806 .62402346 .4169922 .67407229 .5059967 .67407229 .60798647 .67407229 .6669922 .5970001 .6669922 .48091126 .6669922 .44088746 .6639862 .43988038 .6639862 .4298706 .6639862 .41986085 .6749878 .41986085 .67900088 .41986085 .69200137 .41986085 .69200137 .42185975 .69699099 .43988038L.7599945 .69506838Z"/>
<path id="font_2_2" d="M.49198915 .68133547C.49198915 .69433596 .47999574 .69433596 .47499085 .69433596 .45999146 .69433596 .45899964 .68933108 .45498658 .67233279L.397995 .44335938C.22099304 .4353485 .069992069 .30833436 .069992069 .17430115 .069992069 .061279298 .17298889-.006729126 .28399659-.010726929 .27598573-.041793825 .2689972-.0738678 .26098634-.10493469 .24899292-.15203858 .23999024-.18910218 .23999024-.19210816 .23999024-.20410156 .25299073-.20410156 .2559967-.20410156 .2709961-.20410156 .27198792-.20111084 .2769928-.18009949L.31900025-.01171875C.48999024-.0047302248 .6469879 .121292117 .6469879 .25732423 .6469879 .3623352 .5549927 .4373474 .43299867 .4423523L.49198915 .68133547M.29100038 .01727295C.21398926 .021270752 .14299011 .0632782 .14299011 .15730286 .14299011 .25732423 .21899414 .39834596 .3899994 .41435243L.29100038 .01727295M.4249878 .41435243C.5019989 .41134645 .57398989 .369339 .57398989 .2743225 .57398989 .16529846 .48799134 .031280519 .32598878 .01727295L.4249878 .41435243Z"/>
<path id="font_2_3" d="M.5439911 .6673279C.5469971 .6773224 .5469971 .68133547 .5469971 .6823273 .5469971 .69433596 .5339966 .69433596 .5309906 .69433596 .5159912 .69433596 .5159912 .6903229 .5109863 .67233279L.34799195 .020233155C.2659912 .030227662 .22200012 .06524658 .22200012 .13227844 .22200012 .14727783 .22200012 .17529297 .27198792 .29934693 .27999879 .32136537 .2869873 .33836366 .2869873 .3553772 .2869873 .4073944 .24299622 .44140626 .19198609 .44140626 .09199524 .44140626 .04699707 .3043518 .04699707 .28834535 .04699707 .27534486 .06098938 .27534486 .06399536 .27534486 .07798767 .27534486 .07899475 .28033448 .08198547 .29135133 .10598755 .37338258 .1499939 .4133911 .18899536 .4133911 .20599365 .4133911 .21398926 .40238954 .21398926 .37838746 .21398926 .3553772 .20599365 .33636476 .19499207 .3063507 .14498902 .18029785 .14498902 .1572876 .14498902 .13928223 .14498902 .024230957 .2659912-.003768921 .34098817-.0077667238 .33399964-.033813478 .29599-.18710327 .29599-.19111634 .29599-.20410156 .30799867-.20410156 .31199647-.20410156 .32598878-.20410156 .32798768-.19911194 .33198548-.18310547L.375-.009765625C.4139862-.009765625 .5059967-.009765625 .61099246 .09526062 .6380005 .12327576 .6649933 .15829468 .68299868 .20230103 .69699099 .23532105 .71798709 .3173523 .71798709 .3633728 .71798709 .44140626 .67099 .44239808 .66799929 .44239808 .6419983 .44239808 .6139984 .41540528 .6139984 .38938905 .6139984 .3723755 .6239929 .36437989 .6279907 .3613739 .6439972 .34736634 .66799929 .32235719 .66799929 .27833558 .66799929 .19430542 .5529938 .018234253 .38198854 .018234253L.5439911 .6673279Z"/>
<path id="font_2_1" d="M.5109863 .48709107C.5109863 .59210208 .47099305 .70410159 .37298585 .70410159 .22299195 .70410159 .06298828 .4360962 .06298828 .20713806 .06298828 .0881958 .10899353-.009765625 .20098877-.009765625 .35299684-.009765625 .5109863 .26312257 .5109863 .48709107M.17599488 .36509706C.22698975 .58110049 .31298829 .6760864 .37199403 .6760864 .43598939 .6760864 .43598939 .565094 .43598939 .5460968 .43598939 .50709536 .42799378 .44909669 .40699769 .36509706H.17599488M.397995 .32910157C.36999513 .22013855 .34700013 .16616822 .31698609 .1171875 .28599549 .065200809 .24598694 .018234253 .20199585 .018234253 .14698792 .018234253 .13798523 .094192508 .13798523 .1481781 .13798523 .21414185 .15699768 .29211427 .16699219 .32910157H.397995Z"/>
</defs>
<use data-text="A" xlink:href="#font_1_1" transform="matrix(9.963197,0,0,-9.9626,41.747667,9.058001)"/>
<use data-text="B" xlink:href="#font_1_2" transform="matrix(9.963197,0,0,-9.9626,1.1912384,41.098)"/>
<use data-text="C" xlink:href="#font_1_3" transform="matrix(9.963197,0,0,-9.9626,81.72006,41.098)"/>
<path transform="matrix(1.00006,0,0,-1,45.37188,21.674)" stroke-width=".39848" stroke-linecap="butt" stroke-miterlimit="10" stroke-linejoin="miter" fill="none" stroke="#000000" d="M-7.8523 8.76724-31.31781-9.90694"/>
<path transform="matrix(-.78245696,.62267,.6227073,.78241,15.01877,30.81176)" stroke-width=".39848" stroke-linecap="round" stroke-linejoin="round" fill="none" stroke="#000000" d="M-2.07213 2.39091C-1.69356 .95633-.84995 .27893 0 0-.84995-.27893-1.69356-.95633-2.07213-2.39091"/>
<path transform="matrix(-.78245696,.62267,.6227073,.78241,13.896313,31.70499)" stroke-width=".39848" stroke-linecap="round" stroke-linejoin="round" fill="none" stroke="#000000" d="M-2.07213 2.39091C-1.69356 .95633-.84995 .27893 0 0-.84995-.27893-1.69356-.95633-2.07213-2.39091"/>
<use data-text="&#x03d5;" xlink:href="#font_2_2" transform="matrix(6.9742186,0,0,-6.9738,18.492264,18.666)"/>
<path transform="matrix(1.00006,0,0,-1,45.37188,21.674)" stroke-width=".39848" stroke-linecap="butt" stroke-miterlimit="10" stroke-linejoin="miter" fill="none" stroke="#000000" d="M8.0542 8.76724 31.54161-9.97475"/>
<path transform="matrix(.78164687,.62369,.6237274,-.7816,77.07109,31.772999)" stroke-width=".39848" stroke-linecap="round" stroke-linejoin="round" fill="none" stroke="#000000" d="M-2.07213 2.39091C-1.69356 .95633-.84995 .27893 0 0-.84995-.27893-1.69356-.95633-2.07213-2.39091"/>
<use data-text="&#x03c8;" xlink:href="#font_2_3" transform="matrix(6.9742186,0,0,-6.9738,67.67322,18.7)"/>
<path transform="matrix(1.00006,0,0,-1,45.37188,21.674)" stroke-width=".39848" stroke-linecap="butt" stroke-dasharray="2.78941,1.59395" stroke-miterlimit="10" stroke-linejoin="miter" fill="none" stroke="#000000" d="M-31.62958-16.93355H31.45457"/>
<path transform="matrix(1.00006,0,0,-1,77.02759,38.60755)" stroke-width=".39848" stroke-linecap="round" stroke-linejoin="round" fill="none" stroke="#000000" d="M-2.07213 2.39091C-1.69356 .95633-.84995 .27893 0 0-.84995-.27893-1.69356-.95633-2.07213-2.39091"/>
<use data-text="&#x03b8;" xlink:href="#font_2_1" transform="matrix(6.9742186,0,0,-6.9738,43.478769,36.261)"/>
</svg>
